<svg xmlns="http://www.w3.org/2000/svg" width="200" height="200" viewBox="0 0 32 32"><rect width="32" height="32" fill="#1185FE" rx="15%" ry="15%"/><path fill="#fff" d="M16 14.8c-1.087-2.114-4.046-6.053-6.798-7.995-2.636-1.861-3.641-1.539-4.3-1.24C4.139 5.908 4 7.08 4 7.768c0 .69.378 5.65.624 6.479.815 2.736 3.713 3.66 6.383 3.364q.205-.03.415-.056-.207.032-.415.056c-3.912.58-7.387 2.005-2.83 7.078 5.013 5.19 6.87-1.113 7.823-4.308.953 3.195 2.05 9.271 7.733 4.308 4.267-4.308 1.172-6.498-2.74-7.078a9 9 0 0 1-.415-.056q.21.026.415.056c2.67.297 5.568-.628 6.383-3.364.246-.828.624-5.79.624-6.478 0-.69-.139-1.861-.902-2.206-.659-.298-1.664-.62-4.3 1.24C20.046 8.748 17.087 12.687 16 14.8"/></svg>