<svg xmlns="http://www.w3.org/2000/svg" viewBox="0 8.81 272.66 46.98"><path d="M25.63 1.28q-1.58 1.84-3.55 2.95-1.96 1.11-3.94 1.11-2.17 0-4.22-1.27T10.58.16Q9.3-2.48 9.3-5.62q0-3.89 1.99-7.78t4.95-5.85q2.95-1.95 5.73-1.95 2.13 0 4.06 1.11 1.92 1.11 3.32 3.38l.83-3.78h4.37L31.03-4.11Q30.3-.69 30.3-.33q0 .66.5 1.14.5.47 1.21.47 1.29 0 3.39-1.49 2.78-1.95 4.41-5.23 1.62-3.29 1.62-6.78 0-4.07-2.09-7.61-2.08-3.54-6.22-5.67-4.14-2.12-9.15-2.12-5.71 0-10.43 2.67-4.73 2.67-7.33 7.67-2.6 4.99-2.6 10.7 0 5.98 2.6 10.31 2.6 4.32 7.52 6.38t10.9 2.06q6.4 0 10.72-2.15 4.32-2.14 6.47-5.22h4.42Q45 7.36 41.97 10.02q-3.03 2.67-7.2 4.22-4.18 1.55-10.06 1.55-5.42 0-10-1.4-4.58-1.39-7.8-4.18-3.22-2.8-4.86-6.44Q0-.84 0-6.19q0-5.95 2.44-11.35 2.98-6.62 8.46-10.13 5.48-3.52 13.29-3.52 6.06 0 10.88 2.48t7.61 7.39q2.36 4.22 2.36 9.18 0 7.08-4.98 12.57-4.44 4.93-9.71 4.93-1.69 0-2.73-.51-1.03-.51-1.52-1.47-.32-.61-.47-2.1M13.82-5.33q0 3.34 1.59 5.2 1.58 1.85 3.63 1.85 1.37 0 2.88-.81 1.52-.82 2.9-2.43t2.26-4.09q.87-2.48.87-4.97 0-3.32-1.64-5.15-1.65-1.83-4.02-1.83-1.56 0-2.94.79t-2.68 2.55q-1.29 1.76-2.07 4.27-.78 2.52-.78 4.62M50.54 7.41l4.27.64q.27 1.97 1.49 2.88 1.63 1.22 4.47 1.22 3.05 0 4.71-1.22t2.24-3.42q.35-1.34.32-5.64-2.88 3.39-7.18 3.39-5.34 0-8.27-3.85-2.93-3.86-2.93-9.26 0-3.71 1.34-6.84 1.34-3.14 3.9-4.85 2.55-1.71 5.99-1.71 4.59 0 7.57 3.71v-3.12h4.05V1.75q0 6.05-1.23 8.58-1.24 2.53-3.91 3.99-2.67 1.47-6.58 1.47-4.64 0-7.49-2.09-2.86-2.09-2.76-6.29m3.63-15.57q0 5.1 2.03 7.44 2.03 2.35 5.08 2.35 3.03 0 5.08-2.34 2.05-2.33 2.05-7.31 0-4.76-2.11-7.18-2.12-2.41-5.09-2.41-2.93 0-4.98 2.38-2.06 2.38-2.06 7.07M79.15 5.26v-25.92h3.93v3.63q1.22-1.9 3.25-3.06 2.02-1.16 4.61-1.16 2.88 0 4.73 1.2 1.84 1.19 2.6 3.34 3.07-4.54 8-4.54 3.86 0 5.94 2.14 2.07 2.13 2.07 6.58V5.26h-4.37v-16.33q0-2.64-.43-3.8-.42-1.16-1.55-1.86-1.12-.71-2.63-.71-2.74 0-4.54 1.82-1.81 1.82-1.81 5.82V5.26h-4.39v-16.84q0-2.93-1.08-4.4-1.07-1.46-3.51-1.46-1.86 0-3.43.98-1.58.97-2.29 2.85t-.71 5.42V5.26zm58.57-3.19q-2.44 2.07-4.7 2.93-2.26.85-4.85.85-4.27 0-6.56-2.09-2.3-2.09-2.3-5.33 0-1.91.87-3.48.86-1.58 2.27-2.53 1.4-.95 3.16-1.44 1.29-.34 3.91-.66 5.32-.63 7.83-1.51.03-.9.03-1.15 0-2.68-1.25-3.78-1.68-1.49-5-1.49-3.1 0-4.58 1.08-1.48 1.09-2.18 3.85l-4.3-.59q.58-2.76 1.93-4.45 1.34-1.7 3.88-2.61 2.54-.92 5.88-.92 3.32 0 5.4.78 2.07.78 3.05 1.97.98 1.18 1.37 2.99.22 1.12.22 4.05v5.86q0 6.13.28 7.75t1.11 3.11h-4.59q-.68-1.36-.88-3.19m-.37-9.82q-2.39.98-7.17 1.66-2.71.39-3.84.88-1.12.49-1.73 1.43T124-1.69q0 1.75 1.33 2.93 1.33 1.17 3.89 1.17 2.54 0 4.52-1.11t2.91-3.04q.7-1.49.7-4.4zm11.28-17.72v-5.06h4.4v5.06zm0 30.73v-25.92h4.4V5.26zm10.99 0v-35.79h4.39V5.26zm12.45 0v-5h5.01v5zm29.57-9.49 4.32.56q-.71 4.47-3.63 6.99-2.92 2.53-7.16 2.53-5.33 0-8.56-3.48-3.24-3.48-3.24-9.97 0-4.2 1.4-7.35 1.39-3.15 4.23-4.73 2.85-1.57 6.19-1.57 4.22 0 6.91 2.14 2.69 2.13 3.44 6.06l-4.27.66q-.61-2.61-2.16-3.93t-3.75-1.32q-3.32 0-5.39 2.38-2.08 2.38-2.08 7.54 0 5.22 2 7.59t5.23 2.37q2.59 0 4.32-1.59t2.2-4.88m6.44-3.47q0-7.2 4-10.67 3.35-2.88 8.16-2.88 5.35 0 8.74 3.5 3.39 3.51 3.39 9.68 0 5.01-1.5 7.88t-4.37 4.45q-2.87 1.59-6.26 1.59-5.45 0-8.8-3.49-3.36-3.49-3.36-10.06m4.52 0q0 4.98 2.17 7.46t5.47 2.48q3.27 0 5.44-2.49 2.18-2.49 2.18-7.6 0-4.81-2.19-7.28-2.18-2.48-5.43-2.48-3.3 0-5.47 2.46-2.17 2.47-2.17 7.45m24.92 12.96v-25.92h3.94v3.63q1.22-1.9 3.24-3.06 2.03-1.16 4.62-1.16 2.88 0 4.72 1.2 1.84 1.19 2.6 3.34 3.08-4.54 8.01-4.54 3.86 0 5.93 2.14 2.08 2.13 2.08 6.58V5.26h-4.37v-16.33q0-2.64-.43-3.8t-1.55-1.86q-1.12-.71-2.64-.71-2.73 0-4.54 1.82t-1.81 5.82V5.26h-4.39v-16.84q0-2.93-1.07-4.4-1.08-1.46-3.52-1.46-1.86 0-3.43.98-1.58.97-2.28 2.85-.71 1.88-.71 5.42V5.26z"/></svg>