<svg xmlns="http://www.w3.org/2000/svg" viewBox="0 0 40 40"><rect width="40" height="40" fill="#252525" rx="15%" ry="15%"/><path fill="#fff" d="M30.934 11.202h-7.74l3.178-2.995c.439-.414.464-1.11.055-1.556a1.075 1.075 0 0 0-1.534-.056l-4.887 4.607-4.887-4.607a1.076 1.076 0 0 0-1.535.056 1.11 1.11 0 0 0 .056 1.556l3.176 2.995H9.08A2.38 2.38 0 0 0 6.7 13.586v14.298a2.384 2.384 0 0 0 2.379 2.386h3.014l1.797 2.093c.3.35.787.35 1.087 0l1.796-2.093h6.465l1.796 2.093c.3.35.788.35 1.088 0l1.796-2.093h3.016a2.38 2.38 0 0 0 2.378-2.386V13.586a2.38 2.38 0 0 0-2.378-2.384"/></svg>